<svg width="800" height="800" viewBox="0 0 800 800" fill="none" xmlns="http://www.w3.org/2000/svg">
<path d="M661.522 146.148H430.77C424.675 146.228 418.852 148.685 414.542 152.995C410.232 157.305 407.775 163.128 407.695 169.224V630.727C407.775 636.822 410.232 642.645 414.542 646.955C418.852 651.266 424.675 653.722 430.77 653.802H661.522C671.722 653.802 681.504 649.75 688.717 642.538C695.929 635.325 699.981 625.543 699.981 615.344V184.607C699.981 174.407 695.929 164.625 688.717 157.413C681.504 150.2 671.722 146.148 661.522 146.148Z" fill="#A5D6A7"/>
<path d="M445.536 105.276C442.83 103.145 439.706 101.605 436.367 100.757C433.028 99.9094 429.548 99.7717 426.153 100.353L118.484 161.887C113.246 162.956 108.542 165.811 105.175 169.963C101.808 174.116 99.9873 179.309 100.024 184.655V615.391C99.9873 620.737 101.808 625.93 105.175 630.082C108.542 634.235 113.246 637.089 118.484 638.159L426.153 699.692H430.768C436.137 699.65 441.337 697.808 445.536 694.462C448.135 692.27 450.224 689.538 451.659 686.456C453.094 683.374 453.839 680.017 453.843 676.617V123.121C453.839 119.721 453.094 116.364 451.659 113.282C450.224 110.2 448.135 107.468 445.536 105.276Z" fill="#66BB6A"/>
<path d="M357.543 320.644L296.009 415.406L357.543 510.168C360.585 515.128 361.641 521.053 360.5 526.758C359.359 532.464 356.105 537.527 351.39 540.935C347.587 543.547 343.08 544.942 338.467 544.935C334.701 544.928 330.993 543.999 327.668 542.229C324.343 540.459 321.501 537.902 319.392 534.782L266.781 456.942L236.014 505.246C233.904 508.366 231.063 510.923 227.738 512.693C224.413 514.463 220.705 515.392 216.938 515.399C212.325 515.405 207.819 514.011 204.016 511.399C199.301 507.991 196.047 502.927 194.905 497.222C193.764 491.517 194.821 485.592 197.863 480.632L239.09 415.406L196.324 351.411C193.289 346.352 192.307 340.321 193.58 334.56C194.853 328.799 198.285 323.744 203.17 320.435C208.055 317.126 214.022 315.814 219.844 316.768C225.667 317.723 230.903 320.871 234.475 325.567L265.242 373.871L319.392 294.8C322.965 290.104 328.2 286.956 334.023 286.001C339.846 285.047 345.813 286.359 350.698 289.668C355.583 292.977 359.014 298.032 360.288 303.793C361.561 309.555 360.578 315.585 357.543 320.644ZM699.978 184.655V615.391C699.978 625.591 695.927 635.373 688.714 642.585C681.502 649.798 671.72 653.85 661.52 653.85H453.843V676.925C453.839 680.324 453.094 683.682 451.659 686.764C450.224 689.846 448.135 692.578 445.536 694.77C441.337 698.116 436.137 699.958 430.768 700H426.153L118.484 638.466C113.246 637.397 108.542 634.542 105.175 630.39C101.808 626.237 99.9873 621.045 100.024 615.699V184.655C99.9873 179.309 101.808 174.116 105.175 169.963C108.542 165.811 113.246 162.956 118.484 161.887L426.153 100.353C429.549 99.7717 433.028 99.9094 436.367 100.757C439.706 101.605 442.83 103.145 445.536 105.276C448.135 107.468 450.224 110.2 451.659 113.282C453.094 116.364 453.839 119.721 453.843 123.121V146.196H661.52C671.72 146.196 681.502 150.248 688.714 157.46C695.927 164.673 699.978 174.455 699.978 184.655ZM407.693 151.426L146.174 203.422V596.316L407.693 648.619V151.426ZM653.828 192.346H453.843V240.035C456.386 239.573 458.992 239.573 461.535 240.035H492.302C498.422 240.035 504.291 242.466 508.618 246.794C512.946 251.121 515.377 256.99 515.377 263.11C515.377 269.23 512.946 275.099 508.618 279.427C504.291 283.754 498.422 286.185 492.302 286.185H461.535C458.899 286.148 456.291 285.626 453.843 284.647V332.336C456.291 331.356 458.899 330.835 461.535 330.797H492.302C498.422 330.797 504.291 333.228 508.618 337.556C512.946 341.883 515.377 347.753 515.377 353.872C515.377 359.992 512.946 365.862 508.618 370.189C504.291 374.516 498.422 376.948 492.302 376.948H461.535C458.899 376.91 456.291 376.389 453.843 375.409V424.636C456.291 423.657 458.899 423.136 461.535 423.098H492.302C498.422 423.098 504.291 425.529 508.618 429.857C512.946 434.184 515.377 440.053 515.377 446.173C515.377 452.293 512.946 458.162 508.618 462.49C504.291 466.817 498.422 469.248 492.302 469.248H461.535C458.899 469.211 456.291 468.689 453.843 467.71V516.937C456.291 515.958 458.899 515.436 461.535 515.399H492.302C498.422 515.399 504.291 517.83 508.618 522.157C512.946 526.485 515.377 532.354 515.377 538.474C515.377 544.594 512.946 550.463 508.618 554.79C504.291 559.118 498.422 561.549 492.302 561.549H461.535C458.899 561.511 456.291 560.99 453.843 560.011V607.699H653.828V192.346ZM553.836 561.549H584.603C590.722 561.549 596.592 559.118 600.919 554.79C605.247 550.463 607.678 544.594 607.678 538.474C607.678 532.354 605.247 526.485 600.919 522.157C596.592 517.83 590.722 515.399 584.603 515.399H553.836C547.716 515.399 541.846 517.83 537.519 522.157C533.192 526.485 530.76 532.354 530.76 538.474C530.76 544.594 533.192 550.463 537.519 554.79C541.846 559.118 547.716 561.549 553.836 561.549ZM553.836 469.248H584.603C590.722 469.248 596.592 466.817 600.919 462.49C605.247 458.162 607.678 452.293 607.678 446.173C607.678 440.053 605.247 434.184 600.919 429.857C596.592 425.529 590.722 423.098 584.603 423.098H553.836C547.716 423.098 541.846 425.529 537.519 429.857C533.192 434.184 530.76 440.053 530.76 446.173C530.76 452.293 533.192 458.162 537.519 462.49C541.846 466.817 547.716 469.248 553.836 469.248ZM553.836 376.948H584.603C590.722 376.948 596.592 374.516 600.919 370.189C605.247 365.862 607.678 359.992 607.678 353.872C607.678 347.753 605.247 341.883 600.919 337.556C596.592 333.228 590.722 330.797 584.603 330.797H553.836C547.716 330.797 541.846 333.228 537.519 337.556C533.192 341.883 530.76 347.753 530.76 353.872C530.76 359.992 533.192 365.862 537.519 370.189C541.846 374.516 547.716 376.948 553.836 376.948ZM553.836 284.647H584.603C590.722 284.647 596.592 282.216 600.919 277.888C605.247 273.561 607.678 267.692 607.678 261.572C607.678 255.452 605.247 249.583 600.919 245.255C596.592 240.928 590.722 238.497 584.603 238.497H553.836C547.716 238.497 541.846 240.928 537.519 245.255C533.192 249.583 530.76 255.452 530.76 261.572C530.76 267.692 533.192 273.561 537.519 277.888C541.846 282.216 547.716 284.647 553.836 284.647Z" fill="#353535"/>
</svg>
